<mxfile host="app.diagrams.net" modified="2021-09-02T06:24:48.057Z" agent="5.0 (Windows NT 10.0; Win64; x64) AppleWebKit/537.36 (KHTML, like Gecko) Chrome/92.0.4515.159 Safari/537.36" etag="uQPGR0Ri7dQZEbpdnxHH" version="15.0.5" type="github">
  <diagram name="Page-1" id="5f0bae14-7c28-e335-631c-24af17079c00">
    <mxGraphModel dx="1006" dy="685" grid="1" gridSize="10" guides="1" tooltips="1" connect="1" arrows="1" fold="1" page="1" pageScale="1" pageWidth="1100" pageHeight="850" background="none" math="0" shadow="0">
      <root>
        <mxCell id="0" />
        <mxCell id="1" parent="0" />
        <mxCell id="-MnmKVy5KxwoX18CLhe7-57" value="" style="rounded=0;whiteSpace=wrap;html=1;shadow=0;sketch=0;strokeColor=#000000;strokeWidth=2;gradientColor=none;" vertex="1" parent="1">
          <mxGeometry x="540" y="440" width="120" height="60" as="geometry" />
        </mxCell>
        <mxCell id="-MnmKVy5KxwoX18CLhe7-21" value="" style="rounded=0;whiteSpace=wrap;html=1;shadow=0;sketch=0;dashed=1;" vertex="1" parent="1">
          <mxGeometry x="110" y="190" width="210" height="160" as="geometry" />
        </mxCell>
        <mxCell id="-MnmKVy5KxwoX18CLhe7-3" value="" style="edgeStyle=orthogonalEdgeStyle;rounded=0;orthogonalLoop=1;jettySize=auto;html=1;exitX=0.875;exitY=0.5;exitDx=0;exitDy=0;exitPerimeter=0;" edge="1" parent="1" source="-MnmKVy5KxwoX18CLhe7-1">
          <mxGeometry relative="1" as="geometry">
            <mxPoint x="310" y="270" as="targetPoint" />
          </mxGeometry>
        </mxCell>
        <mxCell id="-MnmKVy5KxwoX18CLhe7-1" value="问题树" style="ellipse;shape=cloud;whiteSpace=wrap;html=1;fontStyle=1" vertex="1" parent="1">
          <mxGeometry x="110" y="230" width="120" height="80" as="geometry" />
        </mxCell>
        <mxCell id="-MnmKVy5KxwoX18CLhe7-7" value="标问1" style="ellipse;whiteSpace=wrap;html=1;fontStyle=1" vertex="1" parent="1">
          <mxGeometry x="240" y="217.5" width="70" height="30" as="geometry" />
        </mxCell>
        <mxCell id="-MnmKVy5KxwoX18CLhe7-9" value="" style="endArrow=classic;html=1;exitX=0.88;exitY=0.25;exitDx=0;exitDy=0;exitPerimeter=0;entryX=0;entryY=1;entryDx=0;entryDy=0;" edge="1" parent="1" source="-MnmKVy5KxwoX18CLhe7-1" target="-MnmKVy5KxwoX18CLhe7-7">
          <mxGeometry width="50" height="50" relative="1" as="geometry">
            <mxPoint x="490" y="380" as="sourcePoint" />
            <mxPoint x="540" y="330" as="targetPoint" />
          </mxGeometry>
        </mxCell>
        <mxCell id="-MnmKVy5KxwoX18CLhe7-11" value="&lt;b&gt;标问2&lt;/b&gt;" style="ellipse;whiteSpace=wrap;html=1;strokeWidth=2;" vertex="1" parent="1">
          <mxGeometry x="240" y="255" width="70" height="30" as="geometry" />
        </mxCell>
        <mxCell id="-MnmKVy5KxwoX18CLhe7-13" value="&lt;b&gt;标问3&lt;/b&gt;" style="ellipse;whiteSpace=wrap;html=1;strokeWidth=2;" vertex="1" parent="1">
          <mxGeometry x="230" y="300" width="60" height="30" as="geometry" />
        </mxCell>
        <mxCell id="-MnmKVy5KxwoX18CLhe7-17" value="" style="endArrow=classic;html=1;exitX=0.8;exitY=0.8;exitDx=0;exitDy=0;exitPerimeter=0;entryX=0;entryY=0.5;entryDx=0;entryDy=0;" edge="1" parent="1" source="-MnmKVy5KxwoX18CLhe7-1" target="-MnmKVy5KxwoX18CLhe7-13">
          <mxGeometry width="50" height="50" relative="1" as="geometry">
            <mxPoint x="260" y="375" as="sourcePoint" />
            <mxPoint x="240" y="310" as="targetPoint" />
          </mxGeometry>
        </mxCell>
        <mxCell id="-MnmKVy5KxwoX18CLhe7-35" value="" style="endArrow=classic;html=1;" edge="1" parent="1">
          <mxGeometry width="50" height="50" relative="1" as="geometry">
            <mxPoint x="350" y="280" as="sourcePoint" />
            <mxPoint x="430" y="280" as="targetPoint" />
          </mxGeometry>
        </mxCell>
        <mxCell id="-MnmKVy5KxwoX18CLhe7-36" value="&lt;b&gt;算法&amp;amp;规则&lt;/b&gt;" style="text;html=1;align=center;verticalAlign=middle;resizable=0;points=[];autosize=1;strokeColor=none;fillColor=none;" vertex="1" parent="1">
          <mxGeometry x="355" y="260" width="70" height="20" as="geometry" />
        </mxCell>
        <mxCell id="-MnmKVy5KxwoX18CLhe7-40" value="" style="edgeStyle=orthogonalEdgeStyle;rounded=0;orthogonalLoop=1;jettySize=auto;html=1;" edge="1" parent="1" source="-MnmKVy5KxwoX18CLhe7-38" target="-MnmKVy5KxwoX18CLhe7-39">
          <mxGeometry relative="1" as="geometry" />
        </mxCell>
        <mxCell id="-MnmKVy5KxwoX18CLhe7-38" value="&lt;span&gt;原声异常&lt;/span&gt;" style="ellipse;whiteSpace=wrap;html=1;rounded=0;shadow=0;sketch=0;fontStyle=1;strokeWidth=2;" vertex="1" parent="1">
          <mxGeometry x="460" y="240" width="120" height="80" as="geometry" />
        </mxCell>
        <mxCell id="-MnmKVy5KxwoX18CLhe7-39" value="&lt;span&gt;根因分析&lt;br&gt;&lt;/span&gt;" style="ellipse;whiteSpace=wrap;html=1;rounded=0;shadow=0;sketch=0;fontStyle=1;strokeWidth=2;" vertex="1" parent="1">
          <mxGeometry x="660" y="240" width="120" height="80" as="geometry" />
        </mxCell>
        <mxCell id="-MnmKVy5KxwoX18CLhe7-50" value="&lt;table border=&quot;1&quot; width=&quot;100%&quot; cellpadding=&quot;4&quot; style=&quot;width: 100% ; height: 100% ; border-collapse: collapse&quot;&gt;&lt;tbody&gt;&lt;tr style=&quot;background-color: #a7c942 ; color: #ffffff ; border: 1px solid #98bf21&quot;&gt;&lt;th align=&quot;left&quot;&gt;用户维度&lt;/th&gt;&lt;th align=&quot;left&quot;&gt;产品维度&lt;/th&gt;&lt;th align=&quot;left&quot;&gt;原声维度&lt;/th&gt;&lt;/tr&gt;&lt;tr style=&quot;border: 1px solid #98bf21&quot;&gt;&lt;td&gt;地域&lt;/td&gt;&lt;td&gt;营销来源&lt;/td&gt;&lt;td&gt;人工&lt;/td&gt;&lt;/tr&gt;&lt;tr style=&quot;background-color: #eaf2d3 ; border: 1px solid #98bf21&quot;&gt;&lt;td&gt;新沉流活&lt;/td&gt;&lt;td&gt;漏斗分析&lt;/td&gt;&lt;td&gt;自助&lt;/td&gt;&lt;/tr&gt;&lt;tr style=&quot;border: 1px solid #98bf21&quot;&gt;&lt;td&gt;行为数据&lt;/td&gt;&lt;td&gt;交易维度&lt;/td&gt;&lt;td&gt;投诉&lt;/td&gt;&lt;/tr&gt;&lt;tr style=&quot;background-color: #eaf2d3 ; border: 1px solid #98bf21&quot;&gt;&lt;td&gt;...&lt;/td&gt;&lt;td&gt;...&lt;/td&gt;&lt;td&gt;...&lt;/td&gt;&lt;/tr&gt;&lt;/tbody&gt;&lt;/table&gt;" style="text;html=1;strokeColor=#c0c0c0;fillColor=#ffffff;overflow=fill;rounded=0;shadow=0;sketch=0;" vertex="1" parent="1">
          <mxGeometry x="610" y="420" width="220" height="130" as="geometry" />
        </mxCell>
        <mxCell id="-MnmKVy5KxwoX18CLhe7-53" value="" style="verticalLabelPosition=bottom;verticalAlign=top;html=1;strokeWidth=2;shape=mxgraph.arrows2.arrow;dy=0.6;dx=40;notch=0;rounded=0;shadow=0;sketch=0;direction=north;" vertex="1" parent="1">
          <mxGeometry x="710" y="330" width="20" height="70" as="geometry" />
        </mxCell>
        <mxCell id="-MnmKVy5KxwoX18CLhe7-55" value="" style="verticalLabelPosition=bottom;verticalAlign=top;html=1;strokeWidth=2;shape=mxgraph.arrows2.arrow;dy=0.6;dx=40;notch=0;rounded=0;shadow=0;sketch=0;direction=north;" vertex="1" parent="1">
          <mxGeometry x="680" y="330" width="20" height="70" as="geometry" />
        </mxCell>
        <mxCell id="-MnmKVy5KxwoX18CLhe7-56" value="" style="verticalLabelPosition=bottom;verticalAlign=top;html=1;strokeWidth=2;shape=mxgraph.arrows2.arrow;dy=0.6;dx=40;notch=0;rounded=0;shadow=0;sketch=0;direction=north;" vertex="1" parent="1">
          <mxGeometry x="740" y="330" width="20" height="70" as="geometry" />
        </mxCell>
      </root>
    </mxGraphModel>
  </diagram>
</mxfile>
